<svg width="51" height="51" viewBox="0 0 51 51" fill="none" xmlns="http://www.w3.org/2000/svg">
<path fill-rule="evenodd" clip-rule="evenodd" d="M0 51H25.5C39.5833 51 51 39.5833 51 25.5C51 11.4167 39.5832 0 25.5 0H0V8.88991H25.1172C34.2907 8.88991 41.7273 16.3265 41.7273 25.5C41.7273 34.6735 34.2907 42.1101 25.1172 42.1101H0V51Z" fill="#6564D7"/>
<path fill-rule="evenodd" clip-rule="evenodd" d="M0 36.9633H25.3937C31.8539 36.9633 37.0909 31.7263 37.0909 25.2661C37.0909 18.8059 31.8539 13.5688 25.3937 13.5688H0V22.9266H25.4787C26.7708 22.9266 27.8182 23.974 27.8182 25.2661C27.8182 26.5581 26.7708 27.6055 25.4787 27.6055H0V36.9633Z" fill="#6564D7"/>
<rect y="13.5688" width="9.27273" height="23.3945" fill="#6564D7"/>
</svg>
